<?xml version="1.0" encoding="utf-8"?>
<!-- Generator: Adobe Illustrator 15.1.0, SVG Export Plug-In . SVG Version: 6.00 Build 0)  -->
<!DOCTYPE svg PUBLIC "-//W3C//DTD SVG 1.1//EN" "http://www.w3.org/Graphics/SVG/1.1/DTD/svg11.dtd">
<svg version="1.1" id="Layer_1" xmlns="http://www.w3.org/2000/svg" xmlns:xlink="http://www.w3.org/1999/xlink" x="0px" y="0px"
	 width="283.472px" height="105.362px" viewBox="0 0 283.472 105.362" enable-background="new 0 0 283.472 105.362"
	 xml:space="preserve">
<g>
	<path fill="#BE0F2D" d="M258.261,26.948l2.701-9.658c0.743-2.634,1.418-6.077,2.094-8.779h0.135
		c0.676,2.702,1.487,6.078,2.296,8.779l2.836,9.658H258.261z M269.81,34.647l3.512,11.684h10.15l-13.19-45.521h-13.507
		l-13.846,45.521h10.604l3.242-11.684H269.81z M214.364,8.51c0.742-0.203,2.16-0.337,4.658-0.337c4.729,0,7.565,2.162,7.565,6.28
		c0,3.986-3.039,6.552-8.171,6.552h-4.053V8.51z M204.165,46.332h10.199V28.433h3.038c4.255,0.068,6.213,1.554,7.496,7.294
		c1.284,5.605,2.432,9.253,3.108,10.604h10.535c-0.879-1.756-2.229-7.7-3.646-12.9c-1.148-4.187-2.904-7.159-6.079-8.443v-0.201
		c3.918-1.419,8.037-5.403,8.037-11.144c0-4.187-1.485-7.429-4.254-9.591c-3.243-2.567-7.97-3.579-14.724-3.579
		c-5.538,0-10.401,0.404-13.711,0.946V46.332z M191.848,18.708h-16.749V9.253h17.763V0.811h-28.028v45.521h28.973v-8.443h-18.707
		V27.083h16.749V18.708z M143.223,46.332l15.332-45.521h-10.941l-5.81,19.451c-1.553,5.201-2.971,10.603-4.12,16.073h-0.203
		c-1.08-5.673-2.499-10.805-4.052-16.275l-5.538-19.249h-11.278l14.588,45.521H143.223z M89.059,46.332h28.365v-8.646h-18.1V0.811
		H89.059V46.332z M58.438,8.173c7.092,0,10.941,7.024,10.941,15.263c0,8.848-3.985,15.466-10.941,15.466
		c-6.889,0-11.075-6.28-11.075-15.263C47.363,14.791,51.415,8.173,58.438,8.173 M58.64,0C45.269,0,36.488,10.198,36.488,23.84
		c0,13.036,7.969,23.233,21.409,23.233c13.373,0,22.355-8.982,22.355-23.974C80.252,10.469,72.621,0,58.64,0 M0,44.17
		c2.567,1.418,7.699,2.837,12.899,2.837c12.494,0,18.303-6.484,18.303-14.115c0-6.417-3.714-10.605-11.75-13.576
		c-5.943-2.229-8.443-3.512-8.443-6.417c0-2.296,2.161-4.39,6.619-4.39c4.39,0,7.7,1.283,9.456,2.161l2.296-8.24
		c-2.701-1.282-6.416-2.296-11.617-2.296C7.091,0.135,0.54,6.012,0.54,13.777c0,6.619,4.998,10.807,12.562,13.508
		c5.471,1.892,7.632,3.513,7.632,6.349c0,2.971-2.5,4.93-7.226,4.93c-4.39,0-8.712-1.417-11.414-2.837L0,44.17z"/>
	<path fill="#60666F" d="M154.858,105.362l-13.507-23.301l12.832-22.22h-11.751l-3.85,8.307c-1.148,2.635-2.026,4.66-3.107,7.564
		h-0.134c-1.08-2.566-2.094-4.795-3.444-7.564l-3.984-8.307h-11.819l12.697,22.489l-13.17,23.031h11.75l3.715-8.24
		c1.485-3.174,2.633-5.538,3.58-8.172h0.134c1.284,2.634,2.365,4.998,4.054,8.172l4.119,8.24H154.858z M80.502,105.362V91.65
		c0-7.428-0.135-13.844-0.473-19.922H80.3c2.161,5.335,5.199,11.212,7.901,16.073l9.726,17.561h10.806V59.842h-9.456V73.08
		c0,6.888,0.203,13.034,0.811,19.045h-0.135c-2.093-5.133-4.727-10.806-7.429-15.602l-9.456-16.682H71.048v45.521H80.502z
		 M50.989,105.362V86.383l14.994-26.541H54.434l-4.593,10.941c-1.351,3.241-2.431,5.875-3.445,8.713h-0.134
		c-1.082-2.973-2.095-5.404-3.513-8.713l-4.593-10.941H26.338l14.385,26.88v18.641H50.989z M1.823,105.362h28.366v-8.645h-18.1
		V59.842H1.823V105.362z"/>
</g>
</svg>
