<svg xmlns="http://www.w3.org/2000/svg" width="85" height="46" viewBox="0 0 85 46">
    <g fill="#5640B2" fill-rule="evenodd">
        <path d="M50.096 38.059c0-4.194-3.43-7.594-7.66-7.597-4.23.003-7.658 3.403-7.658 7.597 0 4.193 3.428 7.593 7.659 7.596 4.23-.003 7.659-3.403 7.659-7.596M36.857.04c-7.376 0-13.355 5.927-13.355 13.239 0 7.31 5.98 13.237 13.355 13.237 7.376 0 13.355-5.926 13.355-13.237C50.212 5.967 44.232.04 36.857.04M68.953.045h-11.3c-.035-.005-.067 0-.101 0-2.036.053-3.673 1.675-3.727 3.693V15.04c0 .066-.005.132-.005.199 0 .066.004.132.005.198v22.591c0 4.196 3.432 7.597 7.665 7.597 4.232 0 7.663-3.4 7.663-7.597v-7.59c8.468 0 15.333-6.806 15.333-15.2C84.486 6.845 77.62.04 69.153.04c-.067 0-.133.004-.2.005zM23.442 30.427h-7.664V7.637c0-4.195-3.43-7.597-7.663-7.597C3.882.04.45 3.442.45 7.637v30.387c0 4.196 3.432 7.597 7.665 7.597h15.327c4.233 0 7.664-3.401 7.664-7.597 0-4.195-3.431-7.597-7.664-7.597"/>
    </g>
</svg>
